<?xml version="1.0" standalone="no"?>
<!DOCTYPE svg PUBLIC "-//W3C//DTD SVG 20010904//EN"
 "http://www.w3.org/TR/2001/REC-SVG-20010904/DTD/svg10.dtd">
<svg version="1.0" xmlns="http://www.w3.org/2000/svg"
 width="400.000000pt" height="400.000000pt" viewBox="0 0 400.000000 400.000000"
 preserveAspectRatio="xMidYMid meet">
<metadata>
Created by potrace 1.11, written by Peter Selinger 2001-2013
</metadata>
<g transform="translate(0.000000,400.000000) scale(0.100000,-0.100000)"
fill="#000000" stroke="none">
<path d="M395 3960 c-4 -22 -10 -40 -14 -40 -13 0 -52 -89 -56 -124 -2 -29 0
-33 14 -28 14 5 14 3 3 -11 -8 -9 -19 -15 -25 -14 -6 1 -16 -23 -23 -53 -14
-65 -35 -121 -49 -135 -6 -5 -23 -20 -37 -33 l-26 -23 -32 19 c-17 11 -40 18
-50 15 -14 -4 -28 9 -56 51 -20 31 -38 56 -40 56 -2 0 -4 -31 -4 -68 l0 -69
35 -1 c19 -1 37 4 41 10 11 18 89 -135 80 -158 -9 -23 -38 -29 -51 -11 -10 13
-83 47 -101 47 -2 0 -4 -299 -4 -665 l0 -665 23 -1 c120 -4 329 -11 357 -11
19 0 107 -4 195 -9 322 -18 448 -19 471 -4 12 7 54 23 95 36 41 12 82 30 92
40 19 20 42 25 51 11 7 -12 -7 -29 -31 -36 -13 -4 -23 -12 -23 -18 0 -5 7 -7
16 -4 8 3 12 2 9 -4 -3 -6 -1 -10 4 -10 6 0 17 16 25 35 8 19 17 35 20 35 2 0
25 -9 51 -20 26 -11 55 -20 65 -20 14 0 18 -7 18 -27 -1 -16 1 -35 4 -43 12
-31 31 -116 34 -155 8 -87 22 -145 35 -145 5 0 5 10 1 23 -4 12 -6 62 -4 110
3 80 6 89 25 97 16 6 18 9 5 9 -9 1 -19 9 -23 20 -7 23 10 71 26 71 7 0 10 -3
6 -6 -3 -4 0 -21 8 -40 7 -18 12 -44 11 -58 -2 -14 0 -26 5 -26 4 0 13 -16 19
-36 11 -31 10 -38 -7 -53 -11 -10 -29 -24 -41 -30 -13 -7 -20 -17 -16 -22 3
-6 20 1 40 16 37 29 54 26 54 -8 0 -36 -33 -92 -84 -142 l-46 -47 0 31 c0 20
-7 34 -20 41 -17 9 -22 7 -32 -15 -9 -21 -8 -32 5 -61 21 -44 21 -44 -3 -44
-11 0 -20 -5 -20 -10 0 -6 11 -8 25 -4 18 4 27 1 31 -10 5 -12 13 -15 28 -10
11 4 31 7 42 6 14 -1 21 4 20 15 0 9 4 18 10 20 15 5 37 -41 37 -77 0 -20 3
-26 9 -18 4 7 8 21 8 31 0 18 16 24 22 6 3 -9 82 20 140 52 27 14 35 11 67
-20 17 -17 51 -39 76 -50 28 -13 45 -26 46 -38 0 -10 3 -13 6 -5 7 17 30 15
37 -3 8 -23 29 -18 23 5 -3 12 0 20 7 20 32 0 97 62 121 115 14 29 33 56 42
60 10 3 29 23 43 45 26 43 37 49 46 25 4 -8 10 -12 15 -10 16 10 69 -25 69
-45 0 -11 8 -25 18 -31 16 -10 18 -26 16 -160 -1 -82 2 -152 7 -155 10 -6 10
-8 11 161 0 66 3 135 5 153 5 34 6 34 54 30 42 -3 49 0 51 17 2 11 13 24 26
30 30 13 28 28 -8 59 l-31 26 23 30 c12 17 24 26 26 20 5 -15 32 7 32 26 0 23
-15 16 -54 -26 -32 -34 -40 -39 -57 -29 -11 5 -24 20 -29 32 -5 12 -9 17 -9
10 -1 -7 -10 -10 -23 -7 -13 3 -44 8 -69 11 -40 5 -48 2 -65 -19 -37 -47 -47
-41 -10 7 20 27 39 60 42 74 3 14 10 34 16 45 39 72 52 93 66 109 14 15 14 17
-1 17 -9 0 -24 -15 -34 -32 -13 -26 -18 -29 -21 -15 -2 10 6 34 17 53 12 20
19 39 16 44 -6 10 15 60 26 60 13 0 55 -43 64 -65 7 -19 8 -19 15 5 3 14 2 34
-3 46 -6 15 -3 32 10 60 17 37 21 39 68 42 89 6 128 -5 149 -41 11 -17 19 -35
18 -39 -3 -13 15 -9 28 7 20 24 78 30 116 11 40 -18 54 -20 54 -6 0 6 -18 17
-40 26 -33 13 -40 21 -40 43 0 15 7 37 16 50 12 17 13 26 5 34 -15 15 -14 38
5 75 21 44 27 45 79 21 44 -21 49 -27 46 -60 -2 -18 26 -45 36 -35 3 3 1 6 -5
6 -18 0 -15 14 8 40 11 13 20 37 20 57 0 55 27 93 68 93 15 0 22 -6 22 -20 0
-19 0 -19 43 0 23 11 41 25 39 32 -2 7 -6 35 -9 63 -3 27 -10 55 -15 62 -6 8
-6 32 1 65 6 31 7 78 3 114 -7 52 -13 66 -44 95 -20 19 -47 42 -62 52 -20 14
-26 26 -26 57 0 51 8 70 30 70 17 0 18 11 18 128 0 90 -4 133 -14 149 -8 12
-14 34 -14 48 0 38 -28 32 -32 -7 -3 -30 -6 -33 -38 -33 -34 0 -35 -1 -38 -42
-3 -37 -6 -43 -26 -43 -37 0 -52 -25 -38 -62 9 -26 8 -38 -9 -75 -11 -24 -17
-47 -15 -52 7 -11 -13 -72 -30 -92 -8 -8 -14 -23 -14 -31 0 -10 -12 -19 -32
-24 -29 -6 -30 -8 -13 -15 35 -14 46 -10 56 21 6 17 13 30 16 30 9 0 48 -23
61 -37 7 -7 22 -13 31 -13 24 0 37 -17 45 -60 l6 -35 -19 24 c-10 13 -21 19
-24 14 -4 -6 -19 -8 -34 -6 -27 5 -27 4 11 -30 36 -31 40 -39 43 -90 3 -55 2
-57 -34 -82 -49 -33 -73 -32 -108 5 -34 35 -49 37 -69 9 -14 -20 -17 -20 -58
-7 -41 14 -43 17 -42 54 1 48 20 124 47 183 11 24 22 58 24 75 10 77 14 123
14 144 -1 12 3 22 8 22 4 0 8 18 8 40 0 22 6 46 12 54 8 9 9 16 2 21 -6 3 -9
26 -6 53 3 37 0 50 -16 65 -17 16 -20 28 -15 63 l5 44 -55 0 c-45 0 -60 5 -82
25 -15 14 -45 30 -67 36 -22 6 -51 17 -65 24 -50 27 -99 45 -117 45 -10 0 -24
5 -29 10 -6 6 -30 16 -55 23 -29 9 -43 18 -40 28 9 34 5 54 -13 57 -16 4 -18
0 -13 -28 7 -31 6 -31 -23 -25 -16 3 -38 2 -49 -4 -12 -7 -29 -8 -43 -2 -12 4
-34 5 -48 1 -14 -4 -56 -13 -95 -20 -38 -7 -88 -20 -110 -28 -45 -16 -86 -17
-95 -2 -4 6 -22 -6 -42 -27 -19 -21 -61 -54 -92 -73 -31 -19 -56 -40 -56 -46
0 -18 -41 -65 -51 -59 -5 4 -9 -2 -10 -12 -2 -65 -9 -107 -28 -172 -11 -41
-21 -97 -21 -125 0 -56 -10 -68 -68 -81 -43 -9 -82 15 -82 52 0 14 -10 41 -21
60 -20 32 -22 62 -8 123 7 27 -69 26 -97 -1 -13 -12 -24 -28 -24 -35 0 -18
-21 -32 -58 -37 -29 -5 -33 -3 -29 13 3 11 -1 21 -10 24 -21 8 -39 -4 -22 -15
11 -6 6 -15 -21 -38 -19 -17 -39 -30 -43 -31 -17 0 -57 50 -57 73 0 23 -5 25
-69 31 -60 6 -70 10 -80 32 -6 14 -11 31 -11 39 0 8 -6 18 -13 22 -24 15 -26
41 -6 67 11 14 28 26 38 26 35 0 61 29 61 70 0 21 -4 42 -10 45 -5 3 -10 15
-10 26 0 10 -4 19 -10 19 -5 0 -10 -9 -10 -20 0 -12 -10 -24 -24 -30 -13 -5
-33 -22 -46 -39 -25 -37 -38 -38 -74 -10 -22 17 -26 27 -21 50 7 31 8 30 -53
33 -42 1 -51 -10 -62 -76 -5 -29 -12 -65 -16 -81 -4 -16 -1 -33 6 -42 17 -20
60 -20 60 1 0 9 5 13 13 10 6 -3 19 -9 29 -12 20 -7 30 -42 17 -65 -5 -10 -9
-29 -9 -43 0 -57 -67 -118 -154 -140 -12 -3 -27 -14 -33 -25 -12 -18 -10 -21
12 -27 14 -3 25 -10 25 -15 0 -5 9 -18 20 -29 25 -25 25 -45 2 -68 -10 -10
-21 -26 -25 -35 -3 -9 -13 -17 -22 -17 -19 0 -57 -21 -68 -37 -4 -7 -17 -9
-35 -4 -34 9 -41 44 -14 80 10 14 26 40 35 57 15 30 15 33 -2 55 -14 19 -17
36 -13 87 4 56 7 63 29 68 21 6 23 11 18 33 -4 14 -7 33 -7 41 2 34 -9 58 -28
63 -11 3 -23 1 -26 -5 -4 -5 -16 0 -29 12 -12 11 -29 20 -36 18 -8 -2 -14 3
-13 10 1 6 2 23 3 36 0 13 12 34 25 47 13 13 30 38 39 54 9 17 34 46 56 65 85
75 171 162 171 175 0 7 32 46 71 86 l72 74 -38 3 c-44 4 -56 -7 -130 -120 -35
-52 -56 -73 -94 -93 l-50 -25 -12 22 c-6 12 -13 49 -14 82 -3 59 -2 62 36 99
l40 37 -35 0 c-32 0 -35 -2 -41 -40z m2166 -423 c-1 -12 -15 -9 -19 4 -3 6 1
10 8 8 6 -3 11 -8 11 -12z m544 -137 c-3 -5 -10 -10 -16 -10 -5 0 -9 5 -9 10
0 6 7 10 16 10 8 0 12 -4 9 -10z m9 -104 c18 -71 -44 -91 -69 -21 -8 23 -6 30
14 46 32 26 44 20 55 -25z m-1119 3 c39 -12 50 -19 64 -46 10 -21 19 -23 80
-22 38 1 77 -3 87 -9 11 -5 36 -13 58 -16 44 -8 76 -26 76 -41 0 -6 27 -30 60
-53 39 -28 62 -52 67 -70 3 -15 14 -42 24 -59 10 -18 17 -33 15 -33 -2 0 3
-28 10 -62 17 -80 17 -101 2 -95 -7 2 -12 12 -10 22 2 9 -1 14 -6 11 -5 -3
-12 7 -15 22 -9 41 -73 69 -175 76 -69 5 -90 2 -120 -13 -21 -10 -43 -16 -50
-13 -10 3 -13 -5 -10 -29 3 -33 2 -34 -32 -32 -60 5 -78 8 -86 16 -4 4 4 7 18
7 14 0 31 7 38 15 7 8 8 15 3 15 -5 0 -40 20 -77 45 -51 33 -88 49 -144 60
-41 9 -81 14 -89 11 -22 -9 -43 5 -43 28 0 16 2 18 9 7 7 -11 11 -10 20 7 8
15 8 21 -2 25 -9 3 -9 10 -2 23 14 26 7 74 -10 74 -18 0 -29 41 -21 73 7 29
64 67 102 68 16 0 38 4 49 8 11 5 34 4 50 -1 17 -5 44 -14 60 -19z m-315 11
c0 -5 -5 -10 -11 -10 -5 0 -7 5 -4 10 3 6 8 10 11 10 2 0 4 -4 4 -10z m1334
-23 c8 -12 7 -20 -1 -28 -16 -16 -33 -2 -33 27 0 28 17 28 34 1z m-1972 -160
c16 -12 28 -24 28 -29 0 -18 -55 -108 -66 -108 -41 0 -110 108 -85 133 38 38
76 39 123 4z m126 -39 c-4 -41 -28 -50 -28 -10 0 16 3 32 7 35 15 16 24 5 21
-25z m1963 -148 c5 0 9 -4 9 -10 0 -5 -11 -10 -25 -10 -16 0 -25 6 -25 16 0
11 5 14 16 10 9 -3 20 -6 25 -6z m-1256 -40 c4 -6 -9 -10 -32 -9 -30 0 -34 2
-18 9 27 12 43 12 50 0z m-981 -71 c-3 -5 -16 -9 -29 -9 -23 0 -35 -17 -35
-50 0 -32 -28 -31 -39 1 -13 39 -5 59 25 59 13 0 24 5 24 10 0 6 7 22 17 36
l16 25 14 -31 c7 -18 10 -36 7 -41z m964 8 c4 -3 21 1 37 9 25 13 30 13 45 -1
9 -8 33 -15 53 -15 37 0 50 -16 22 -26 -20 -8 -19 -24 0 -24 13 0 12 -6 -5
-39 -25 -49 -55 -71 -98 -71 -26 0 -32 -4 -30 -17 3 -16 -6 -18 -87 -15 -49 2
-94 7 -98 12 -5 4 -11 22 -14 40 -4 31 -4 32 12 17 23 -24 42 -21 20 3 -15 16
-15 22 -5 35 8 10 9 15 1 15 -14 0 -14 40 -1 75 12 32 53 32 59 0 2 -11 15
-31 30 -45 21 -20 35 -24 75 -23 27 1 51 5 55 8 10 11 -31 35 -58 35 -27 1
-61 21 -61 37 0 5 5 14 12 21 10 10 14 8 20 -7 3 -10 11 -21 16 -24z m142 33
c12 -8 10 -10 -10 -10 -14 0 -32 5 -40 10 -12 8 -10 10 10 10 14 0 32 -5 40
-10z m-1291 -40 c14 -7 20 -17 17 -27 -3 -8 -6 -21 -6 -29 0 -9 -4 -13 -9 -9
-6 3 -15 -4 -21 -15 -13 -24 -40 -26 -80 -5 -37 19 -39 50 -5 87 26 28 49 28
104 -2z m768 13 c4 -10 12 -22 19 -28 6 -5 15 -23 18 -38 4 -15 11 -25 16 -22
6 4 10 -16 10 -49 0 -31 -4 -56 -10 -56 -5 0 -9 -10 -7 -21 1 -12 -3 -24 -10
-26 -14 -5 -27 48 -25 107 1 25 -2 59 -7 75 -7 22 -10 25 -10 9 -1 -11 -9 -28
-19 -38 -18 -15 -20 -15 -37 4 -17 19 -17 27 7 65 24 38 45 45 55 18z m900
-23 c25 -13 32 -19 19 -20 -11 0 -28 8 -39 18 -15 12 -21 14 -24 5 -3 -7 -9
-13 -14 -13 -6 0 -7 5 -4 10 4 6 -7 10 -27 10 -25 0 -29 3 -18 10 18 12 57 5
107 -20z m-697 -37 c0 -28 -3 -34 -10 -23 -13 20 -13 60 0 60 6 0 10 -17 10
-37z m540 26 c0 -7 11 -9 29 -6 21 5 31 2 35 -10 8 -20 9 -19 -35 -26 -28 -4
-42 0 -63 18 l-27 23 23 5 c13 2 26 5 31 6 4 0 7 -4 7 -10z m992 -24 c2 -11
-1 -22 -7 -25 -5 -3 -11 11 -13 30 -4 37 15 33 20 -5z m-1083 -7 c12 -32 32
-99 35 -121 3 -22 56 -51 69 -38 5 5 1 12 -13 16 -23 7 -59 75 -60 113 0 12 2
22 5 22 6 0 71 -28 115 -50 19 -10 58 -20 86 -23 l50 -6 -4 29 c-3 25 0 30 22
36 14 3 26 10 26 16 0 5 5 6 10 3 11 -7 14 -64 4 -89 -3 -8 -13 -12 -22 -9
-15 4 -15 3 -2 -6 13 -9 13 -14 2 -32 -19 -29 -11 -32 39 -15 24 9 47 16 50
16 12 0 -2 -72 -21 -108 -11 -20 -20 -42 -20 -47 0 -11 -53 -55 -65 -55 -13 0
-3 28 15 45 37 33 26 46 -32 39 -29 -4 -55 -7 -58 -7 -14 -2 -80 33 -80 42 0
18 51 24 103 12 28 -6 54 -8 59 -3 5 5 -32 14 -84 20 -51 7 -103 15 -114 18
-35 9 -39 -33 -7 -60 32 -28 27 -64 -6 -46 -32 17 -38 11 -11 -10 l25 -20 -33
3 c-37 4 -37 3 -23 40 6 16 11 34 11 40 0 12 -36 21 -75 18 -62 -5 -78 -2 -98
17 -12 11 -38 22 -57 24 -50 4 -53 34 -6 53 27 11 42 28 62 68 35 69 42 77 70
77 16 0 27 -8 33 -22z m241 -3 c0 -8 -7 -15 -16 -15 -14 0 -14 3 -4 15 7 8 14
15 16 15 2 0 4 -7 4 -15z m218 -13 c2 -7 -5 -12 -16 -12 -11 0 -26 -10 -35
-22 -8 -13 -18 -20 -22 -16 -9 9 45 67 59 64 6 -1 12 -8 14 -14z m122 -51 c11
-21 -3 -40 -15 -20 -5 7 -24 9 -54 5 l-46 -6 35 19 c45 26 67 26 80 2z m495
-14 c15 -16 8 -30 -19 -40 -12 -5 -16 -13 -11 -25 8 -20 8 -21 6 -43 -1 -21
-40 -32 -58 -17 -21 17 -13 73 10 72 9 -1 16 3 15 10 -3 14 24 56 35 56 5 0
14 -6 22 -13z m-2494 -38 c19 -22 39 -18 39 7 0 8 5 12 10 9 16 -10 12 -48 -4
-42 -8 3 -20 -1 -27 -9 -10 -12 -13 -12 -25 3 -12 16 -15 16 -23 3 -9 -13 -12
-13 -27 2 -14 14 -15 20 -4 32 17 22 39 20 61 -5z m1957 -86 c-67 -133 -95
-173 -119 -173 -18 0 -20 5 -16 28 10 51 29 117 42 147 8 17 16 38 19 49 5 14
13 17 33 13 29 -5 73 10 73 26 0 6 3 7 7 4 3 -4 -14 -46 -39 -94z m-758 42 c0
-8 -7 -15 -16 -15 -14 0 -14 3 -4 15 7 8 14 15 16 15 2 0 4 -7 4 -15z m-121
-9 c9 -11 6 -17 -15 -31 -15 -9 -23 -12 -19 -5 4 7 -1 13 -14 17 -26 7 -27 20
-3 26 31 8 39 7 51 -7z m121 -36 c0 -5 -7 -10 -16 -10 -8 0 -12 5 -9 10 3 6
10 10 16 10 5 0 9 -4 9 -10z m-14 -47 c-10 -10 -19 5 -10 18 6 11 8 11 12 0 2
-7 1 -15 -2 -18z m-117 -20 c7 -16 17 -23 26 -19 8 3 28 -6 44 -19 33 -29 44
-30 64 -11 13 13 26 13 108 0 52 -9 103 -16 114 -17 11 0 25 -8 32 -18 8 -11
22 -15 40 -12 15 2 44 5 64 7 21 1 43 7 50 13 13 10 50 12 58 3 6 -8 -19 -90
-28 -90 -4 0 -8 -14 -8 -30 0 -30 -25 -59 -50 -60 -7 0 -13 -4 -13 -10 0 -5
-9 -10 -20 -10 -12 0 -31 -11 -44 -25 -13 -14 -33 -25 -45 -25 -11 0 -21 -4
-21 -10 0 -13 -78 -34 -119 -31 -76 6 -193 80 -226 144 -12 24 -12 29 0 34 29
10 14 21 -19 13 -43 -9 -60 1 -51 29 5 17 2 24 -13 28 -18 4 -19 9 -11 30 12
32 5 40 -18 22 -15 -13 -16 -12 -9 6 5 11 11 29 14 40 8 31 20 43 46 43 16 0
28 -9 35 -25z m221 2 c16 -19 0 -19 -26 0 -16 12 -16 14 -3 15 9 0 22 -7 29
-15z m105 -26 c-4 -5 -18 -9 -33 -9 l-27 1 25 13 c25 15 45 12 35 -5z m44 12
c9 -6 10 -11 2 -15 -13 -8 -31 1 -31 15 0 11 11 11 29 0z m281 -93 c-15 -6
-21 -14 -17 -27 2 -11 -3 -23 -14 -30 -11 -6 -19 -18 -19 -26 0 -8 -4 -15 -10
-15 -18 0 -11 25 20 73 22 35 34 45 46 40 15 -5 14 -8 -6 -15z m-903 -320 c-3
-8 -6 -5 -6 6 -1 11 2 17 5 13 3 -3 4 -12 1 -19z m775 -125 c-5 -10 -12 -35
-15 -55 -7 -44 -69 -179 -92 -198 -14 -12 -14 -14 2 -32 13 -14 14 -21 5 -30
-9 -9 -12 -9 -12 1 0 7 -4 9 -10 6 -5 -3 -10 -17 -10 -30 0 -13 -4 -26 -10
-30 -5 -3 -7 -12 -3 -20 3 -10 -6 -20 -28 -30 -19 -9 -52 -27 -74 -40 -60 -38
-62 -38 -92 -17 -15 11 -38 23 -50 26 -13 4 -23 13 -23 21 0 7 -7 16 -16 19
-9 4 -15 8 -13 11 3 2 29 -7 58 -22 59 -28 111 -40 111 -25 0 13 -37 36 -85
51 -48 15 -93 46 -82 57 4 4 22 0 40 -8 33 -16 94 -17 159 -3 46 11 67 26 84
60 8 17 25 43 39 58 31 33 15 35 -33 5 -25 -15 -37 -18 -40 -10 -2 7 -10 12
-18 12 -31 0 -10 36 67 118 75 81 123 122 142 122 4 0 4 -8 -1 -17z m-658
-239 c9 -23 8 -24 -19 -24 -23 0 -24 2 -15 20 13 24 26 26 34 4z m81 -44 c4
-6 -5 -10 -19 -10 -14 0 -26 5 -26 10 0 6 9 10 19 10 11 0 23 -4 26 -10z m68
-6 c27 -10 20 -26 -10 -22 -18 2 -29 10 -31 22 -3 12 0 16 10 12 7 -3 21 -9
31 -12z m-313 -39 c0 -8 -4 -15 -10 -15 -5 0 -10 7 -10 15 0 8 5 15 10 15 6 0
10 -7 10 -15z m370 5 c0 -5 -4 -10 -9 -10 -6 0 -13 5 -16 10 -3 6 1 10 9 10 9
0 16 -4 16 -10z"/>
<path d="M1890 2402 c0 -13 35 -42 49 -42 8 0 3 10 -10 25 -25 25 -39 32 -39
17z"/>
<path d="M1946 2312 c-10 -16 38 -40 85 -42 68 -3 89 -1 89 8 0 24 -161 55
-174 34z"/>
<path d="M2296 2285 c-3 -8 -3 -15 0 -15 3 0 12 7 20 15 13 13 13 15 1 15 -8
0 -17 -7 -21 -15z"/>
<path d="M2092 1584 c10 -10 20 -16 22 -13 3 3 -5 11 -17 18 -21 13 -21 12 -5
-5z"/>
<path d="M1090 3979 c-14 -25 -6 -36 14 -20 8 7 24 10 34 7 10 -4 32 0 47 8
42 22 55 7 42 -44 -10 -36 -14 -40 -44 -40 -40 0 -41 -11 -7 -69 l25 -45 -21
-27 c-25 -35 -25 -41 0 -57 30 -18 60 1 60 38 0 17 3 30 8 30 13 0 62 97 62
124 0 25 -11 31 -46 27 -7 -1 -15 6 -18 15 -7 19 20 67 34 59 5 -3 11 -1 15 5
4 6 -29 10 -94 10 -91 0 -101 -2 -111 -21z"/>
<path d="M1628 3991 c7 -4 21 -23 30 -41 16 -30 37 -45 116 -82 23 -10 30 -10
33 -1 14 40 41 57 102 61 33 2 61 9 61 14 0 6 7 5 15 -2 19 -16 34 -5 17 12
-7 7 -12 20 -12 30 0 17 -14 18 -187 18 -104 0 -182 -4 -175 -9z m147 -47 c0
-19 -3 -34 -7 -34 -5 0 -8 4 -8 9 0 5 -10 11 -22 13 -32 5 -33 25 -1 41 34 18
38 15 38 -29z"/>
<path d="M2983 3983 c3 -10 8 -34 11 -53 3 -19 15 -50 26 -68 17 -28 23 -31
40 -22 17 9 18 13 6 43 -8 17 -17 51 -21 75 -6 38 -9 42 -37 42 -23 0 -28 -4
-25 -17z"/>
<path d="M3837 3993 c-4 -3 -7 -33 -7 -66 0 -32 -7 -99 -16 -148 -13 -71 -14
-107 -7 -182 6 -55 6 -120 2 -156 -5 -34 -7 -72 -5 -84 3 -12 5 -35 6 -52 1
-28 3 -26 16 15 28 89 35 137 36 237 0 57 4 105 9 109 5 3 30 -2 54 -12 43
-16 45 -19 45 -55 0 -28 4 -39 15 -39 12 0 15 13 15 59 l0 59 -37 7 c-21 5
-49 9 -63 11 -14 1 -28 3 -32 3 -5 1 -8 69 -8 151 0 137 -4 163 -23 143z"/>
<path d="M3940 3877 c0 -17 48 -78 54 -69 3 6 -7 25 -24 43 -16 19 -30 30 -30
26z"/>
<path d="M881 3756 c-22 -23 -41 -45 -41 -49 0 -13 16 -7 40 15 18 16 35 22
72 21 64 -1 63 16 -3 44 -24 10 -30 8 -68 -31z"/>
<path d="M1750 3760 c0 -5 5 -10 11 -10 5 0 7 5 4 10 -3 6 -8 10 -11 10 -2 0
-4 -4 -4 -10z"/>
<path d="M3067 3710 c8 -58 16 -68 54 -62 l31 5 -29 27 c-15 15 -36 38 -45 51
-18 24 -18 24 -11 -21z"/>
<path d="M910 3720 c-8 -5 -11 -12 -8 -16 10 -9 38 3 38 16 0 12 -10 13 -30 0z"/>
<path d="M3973 3474 c-3 -8 2 -23 11 -32 15 -15 16 -14 16 16 0 33 -16 43 -27
16z"/>
<path d="M2796 3024 c-4 -9 -4 -19 -1 -22 2 -3 7 3 11 12 4 9 4 19 1 22 -2 3
-7 -3 -11 -12z"/>
<path d="M3953 2958 c-11 -14 -36 -98 -31 -103 2 -1 20 -5 41 -8 l37 -6 0 65
c0 56 -2 64 -19 64 -10 0 -23 -6 -28 -12z"/>
<path d="M2871 2941 c-22 -22 -29 -61 -11 -61 6 0 20 6 33 13 12 6 23 12 25
13 1 1 -4 13 -12 28 l-14 28 -21 -21z"/>
<path d="M3970 2215 c-7 -8 -20 -15 -29 -15 -39 -1 -69 -57 -41 -75 15 -10 40
14 40 37 0 17 5 20 30 16 27 -4 30 -2 30 24 0 31 -11 36 -30 13z"/>
<path d="M2655 2199 c-12 -18 3 -22 20 -5 14 14 14 16 1 16 -8 0 -18 -5 -21
-11z"/>
<path d="M2647 2153 c-10 -9 -8 -43 2 -43 5 0 11 11 13 25 5 24 -2 32 -15 18z"/>
<path d="M3280 2121 c0 -14 -110 -21 -131 -8 -34 21 -31 -2 6 -42 56 -60 67
-79 60 -101 -5 -14 -2 -20 10 -20 8 0 18 -6 21 -14 3 -9 16 -13 32 -11 15 1
38 3 51 4 22 1 23 3 17 64 -7 68 -34 137 -53 137 -7 0 -13 -4 -13 -9z"/>
<path d="M2767 2091 c-2 -10 -1 -25 4 -32 6 -10 9 -4 9 19 0 36 -5 42 -13 13z"/>
<path d="M2460 2090 c0 -5 5 -10 10 -10 6 0 10 5 10 10 0 6 -4 10 -10 10 -5 0
-10 -4 -10 -10z"/>
<path d="M2640 2068 c0 -15 -9 -31 -22 -40 -21 -14 -21 -18 -10 -54 7 -25 8
-40 2 -42 -12 -4 -3 -22 12 -22 11 0 7 62 -6 91 -5 12 -1 18 14 22 18 4 25 -2
41 -36 11 -23 17 -34 14 -23 -3 10 -10 39 -17 65 -13 55 -28 76 -28 39z"/>
<path d="M3900 2001 c0 -87 3 -91 66 -91 l34 0 0 60 c0 44 -4 60 -14 60 -7 0
-21 11 -30 25 -9 14 -25 25 -36 25 -18 0 -20 -7 -20 -79z"/>
<path d="M1309 2054 c-12 -15 -11 -19 9 -32 12 -8 22 -21 22 -28 0 -8 5 -14
11 -14 8 0 9 12 4 37 -11 58 -21 67 -46 37z"/>
<path d="M3080 2041 c0 -25 6 -27 13 -6 4 8 2 17 -3 20 -6 4 -10 -3 -10 -14z"/>
<path d="M2712 2037 c-6 -7 -7 -18 -3 -25 6 -10 10 -10 20 2 10 12 17 13 31 3
11 -6 23 -8 27 -4 8 9 -17 28 -28 21 -4 -2 -10 0 -14 6 -8 14 -20 13 -33 -3z"/>
<path d="M1040 2010 c0 -5 5 -10 10 -10 6 0 10 5 10 10 0 6 -4 10 -10 10 -5 0
-10 -4 -10 -10z"/>
<path d="M1064 1993 c-3 -10 -10 -26 -15 -35 -6 -12 -6 -18 1 -18 5 0 10 -10
10 -22 -1 -22 -1 -22 -18 5 -9 15 -25 27 -34 27 -23 0 -23 -6 3 -41 11 -16 17
-33 14 -39 -3 -5 2 -10 11 -10 10 0 26 -8 37 -17 12 -11 17 -12 12 -4 -6 11
-2 13 17 9 l26 -5 -33 56 c-22 37 -30 58 -22 63 6 4 14 5 18 2 4 -2 6 7 5 21
-1 29 -24 34 -32 8z"/>
<path d="M2935 2000 c3 -5 11 -10 16 -10 6 0 7 5 4 10 -3 6 -11 10 -16 10 -6
0 -7 -4 -4 -10z"/>
<path d="M3100 1984 c-31 -16 -88 -74 -72 -74 6 0 15 7 20 16 5 9 15 15 23 12
12 -4 67 49 58 56 -2 1 -15 -3 -29 -10z"/>
<path d="M1277 1983 c-13 -12 -7 -19 18 -21 28 -2 34 12 9 22 -19 7 -19 7 -27
-1z"/>
<path d="M1362 1969 c-7 -12 -11 -24 -8 -27 3 -3 6 0 6 7 0 7 5 9 10 6 6 -3
10 3 10 14 0 26 -2 26 -18 0z"/>
<path d="M2815 1970 c3 -5 8 -10 11 -10 2 0 4 5 4 10 0 6 -5 10 -11 10 -5 0
-7 -4 -4 -10z"/>
<path d="M2564 1947 c3 -12 6 -28 6 -34 0 -7 6 -13 13 -13 23 0 17 58 -6 64
-15 4 -18 1 -13 -17z"/>
<path d="M2985 1950 c-3 -5 1 -10 10 -10 9 0 13 5 10 10 -3 6 -8 10 -10 10 -2
0 -7 -4 -10 -10z"/>
<path d="M884 1909 c-10 -11 -13 -25 -9 -38 5 -16 2 -21 -12 -21 -14 0 -15 -2
-4 -9 8 -5 20 -7 28 -4 7 3 13 -2 13 -11 0 -9 4 -16 10 -16 5 0 7 7 3 16 -5
14 -3 15 14 6 22 -12 33 -7 33 15 0 7 -7 13 -15 13 -25 0 -17 40 10 50 34 13
32 15 -15 16 -26 1 -45 -5 -56 -17z m31 -38 c-7 -23 -25 -29 -25 -8 0 14 21
39 28 33 2 -3 1 -14 -3 -25z"/>
<path d="M2958 1923 c7 -3 16 -2 19 1 4 3 -2 6 -13 5 -11 0 -14 -3 -6 -6z"/>
<path d="M2379 1900 c-20 -16 -21 -19 -6 -20 9 0 17 4 17 8 0 5 12 13 28 19
24 10 24 11 6 12 -12 1 -32 -8 -45 -19z"/>
<path d="M2690 1908 c0 -27 76 -116 88 -104 3 4 0 11 -7 15 -7 5 -14 20 -14
33 -2 18 -7 24 -19 20 -10 -2 -18 1 -18 8 0 6 -7 18 -15 26 -12 13 -15 13 -15
2z"/>
<path d="M2884 1909 c-9 -15 13 -36 25 -23 6 5 4 14 -4 21 -10 9 -16 10 -21 2z"/>
<path d="M1385 1900 c-3 -5 -17 -10 -31 -10 -28 0 -29 -7 -9 -34 15 -20 15
-20 15 1 0 16 7 20 31 21 40 1 46 8 20 21 -13 7 -22 8 -26 1z"/>
<path d="M1207 1863 c-4 -3 -7 -11 -7 -17 0 -6 5 -5 12 2 6 6 9 14 7 17 -3 3
-9 2 -12 -2z"/>
<path d="M1305 1850 c-3 -5 1 -10 9 -10 9 0 18 -11 22 -24 6 -27 34 -44 34
-21 0 12 -44 65 -55 65 -2 0 -7 -4 -10 -10z"/>
<path d="M1430 1850 c0 -5 5 -10 10 -10 6 0 10 5 10 10 0 6 -4 10 -10 10 -5 0
-10 -4 -10 -10z"/>
<path d="M2846 1843 c-6 -14 -5 -15 5 -6 7 7 10 15 7 18 -3 3 -9 -2 -12 -12z"/>
<path d="M1168 1828 c3 -11 10 -17 18 -14 19 7 18 -9 -1 -28 -20 -19 -19 -26
3 -26 25 -1 46 -34 75 -121 24 -71 33 -120 57 -304 13 -99 16 -278 6 -322 -8
-36 -27 -45 -23 -12 1 12 -4 24 -10 26 -7 3 -13 -2 -13 -9 0 -8 -11 -25 -25
-38 l-24 -23 3 74 c2 41 7 100 11 131 l8 58 -32 -16 c-30 -15 -45 -42 -17 -31
9 4 16 -3 19 -18 2 -14 0 -22 -4 -19 -5 3 -9 -15 -9 -40 0 -88 -25 -101 -57
-31 l-20 45 22 -6 c36 -9 38 11 9 76 -34 76 -61 103 -39 39 8 -24 20 -54 27
-66 6 -13 9 -26 5 -29 -8 -8 -66 25 -107 62 -36 32 -106 61 -118 49 -4 -4 2
-13 12 -21 17 -12 17 -14 3 -14 -9 0 -20 7 -25 15 -4 9 -33 20 -68 25 -78 13
-97 11 -54 -4 63 -23 188 -85 195 -95 3 -6 11 -11 17 -11 7 0 -1 14 -17 30
-16 17 -25 30 -19 30 21 -1 90 -48 100 -68 6 -12 13 -19 17 -16 6 6 47 -68 47
-86 0 -15 -30 -12 -36 4 -3 8 -13 12 -25 9 -25 -7 -25 -23 0 -23 27 0 33 -13
21 -46 -13 -33 -5 -44 14 -18 17 22 24 18 28 -17 2 -15 -2 -23 -9 -22 -7 2
-13 -4 -13 -12 0 -8 5 -15 10 -15 6 0 15 -11 21 -24 11 -24 6 -35 -38 -81 -20
-21 -16 -25 31 -25 60 0 76 8 76 37 0 13 4 22 10 18 5 -3 6 -13 3 -21 -5 -13
1 -15 33 -10 21 4 68 16 104 28 36 12 68 21 73 20 4 -1 7 7 7 18 0 12 -5 17
-13 14 -20 -7 -39 21 -35 53 l4 28 17 -35 c11 -22 14 -26 10 -10 -3 14 -7 39
-8 55 -1 17 -7 29 -12 28 -12 -2 -39 228 -30 251 4 9 2 28 -3 42 -6 14 -13 58
-16 99 l-6 75 34 1 33 1 -37 10 c-51 13 -50 46 2 67 l25 10 -25 -2 c-14 -1
-31 -6 -38 -11 -20 -12 -21 -6 -11 58 6 32 8 64 5 70 -2 6 -5 1 -5 -11 -1 -12
-6 -34 -13 -48 -11 -24 -12 -23 -39 47 -16 40 -33 81 -38 90 -6 10 -8 25 -4
34 4 12 3 15 -5 10 -7 -4 -12 -1 -12 8 0 8 6 17 13 19 6 3 2 6 -11 6 -13 1
-21 5 -17 10 3 5 -8 16 -24 24 -27 13 -28 13 -23 -5z m120 -926 c-3 -20 -10
-47 -16 -59 -7 -12 -9 -30 -5 -40 6 -17 5 -17 -15 1 -27 24 -27 24 0 86 26 59
42 65 36 12z"/>
<path d="M2685 1839 c-4 -6 -5 -12 -2 -15 2 -3 7 2 10 11 7 17 1 20 -8 4z"/>
<path d="M3238 1799 c-2 -39 0 -49 13 -49 16 0 39 19 39 32 0 4 -7 5 -15 2 -9
-4 -15 0 -15 10 0 9 5 16 10 16 16 0 11 14 -9 27 -18 11 -19 8 -23 -38z"/>
<path d="M1273 1833 c-15 -5 -17 -23 -4 -23 5 0 11 7 15 15 3 8 4 15 3 14 -1
0 -8 -3 -14 -6z"/>
<path d="M1095 1810 c-4 -6 -4 -10 -1 -10 2 0 11 -3 20 -6 9 -3 16 -2 16 4 0
14 -28 23 -35 12z"/>
<path d="M2653 1783 c-10 -16 -23 -33 -29 -40 -12 -12 -11 -164 1 -183 3 -5 6
-34 6 -65 1 -30 5 -58 10 -61 5 -3 9 -22 9 -43 0 -37 -1 -39 -40 -45 -22 -3
-40 -10 -40 -15 0 -6 13 -6 32 0 42 12 58 11 58 -1 0 -5 -8 -10 -17 -10 -15 0
-15 -1 2 -14 24 -17 33 -151 9 -142 -8 3 -14 1 -14 -5 0 -5 6 -12 14 -15 8 -3
17 -15 20 -27 5 -20 8 -18 26 18 22 42 19 71 -5 61 -12 -4 -15 3 -15 34 0 31
4 40 17 40 15 0 15 1 -1 13 -12 9 -17 23 -14 47 2 29 7 36 29 38 24 3 27 -1
32 -40 3 -24 5 -58 3 -75 -2 -18 0 -33 3 -33 3 0 7 -41 8 -90 2 -57 -1 -90 -8
-90 -6 0 -4 -9 5 -21 14 -20 13 -24 -16 -51 -17 -16 -28 -31 -24 -35 3 -3 14
2 25 11 20 18 35 8 25 -17 -3 -9 1 -26 10 -39 10 -16 12 -28 6 -38 -5 -8 -10
-25 -10 -36 0 -12 -7 -27 -15 -34 -29 -24 -14 -31 63 -28 72 3 77 4 80 27 2
15 0 21 -7 17 -7 -4 -11 1 -11 13 0 10 -6 21 -12 23 -10 4 -10 10 -1 31 14 31
26 33 67 12 18 -9 34 -12 44 -6 13 7 12 10 -6 20 -12 7 -22 18 -22 25 0 8 -7
17 -16 20 -11 4 -14 13 -10 30 4 18 1 25 -13 29 -11 3 -22 -1 -25 -8 -5 -15
-46 -27 -46 -14 0 6 10 25 23 43 18 28 26 32 44 25 16 -6 21 -13 16 -26 -6
-16 -5 -16 11 -4 23 19 14 55 -25 94 -27 27 -33 28 -56 18 -21 -10 -29 -9 -41
3 -31 31 10 44 70 21 14 -6 17 -1 15 22 -2 24 1 28 21 25 13 -2 29 2 37 8 7 6
30 12 51 13 20 1 39 7 41 13 6 18 -78 23 -102 7 -27 -18 -81 -17 -89 3 -12 32
12 54 61 54 40 0 44 2 32 16 -8 10 -24 14 -46 12 -37 -4 -40 3 -23 62 7 25 7
36 -2 41 -16 10 -28 2 -22 -15 8 -20 -10 -27 -30 -13 -16 11 -15 15 6 55 25
45 38 53 38 24 0 -20 57 -68 68 -57 4 4 -7 19 -24 34 -26 23 -29 32 -22 56 9
36 4 42 -17 21 -28 -27 -47 -20 -44 17 1 17 1 43 0 56 -1 21 -3 22 -18 10 -15
-12 -16 -12 -10 5 6 14 4 17 -9 12 -8 -3 -19 -6 -22 -6 -4 0 -1 -4 7 -9 11 -7
14 -27 13 -74 -3 -91 -11 -150 -23 -157 -14 -9 -69 1 -69 12 0 5 -4 6 -10 3
-6 -4 -10 8 -10 30 0 20 -8 50 -17 68 -9 18 -17 55 -17 83 -1 29 -4 50 -8 47
-19 -11 -7 96 16 140 26 52 26 61 -1 20z m204 -445 c-3 -8 -6 -5 -6 6 -1 11 2
17 5 13 3 -3 4 -12 1 -19z m-18 -35 c1 -7 -3 -13 -9 -13 -5 0 -10 15 -9 33 0
27 2 29 9 12 5 -11 9 -26 9 -32z m1 -63 c0 -5 -2 -10 -4 -10 -3 0 -8 5 -11 10
-3 6 -1 10 4 10 6 0 11 -4 11 -10z m-143 -81 c-6 -10 -13 -15 -15 -9 -6 17 7
42 18 35 6 -4 5 -13 -3 -26z m203 -219 c0 -5 -5 -10 -11 -10 -5 0 -7 5 -4 10
3 6 8 10 11 10 2 0 4 -4 4 -10z"/>
<path d="M2960 1781 c-12 -24 -14 -69 -1 -55 10 11 25 74 17 74 -3 0 -10 -9
-16 -19z"/>
<path d="M3418 1773 c7 -3 16 -2 19 1 4 3 -2 6 -13 5 -11 0 -14 -3 -6 -6z"/>
<path d="M892 1750 c0 -14 2 -19 5 -12 2 6 2 18 0 25 -3 6 -5 1 -5 -13z"/>
<path d="M1390 1760 c0 -5 5 -10 11 -10 5 0 7 5 4 10 -3 6 -8 10 -11 10 -2 0
-4 -4 -4 -10z"/>
<path d="M934 1748 c-7 -11 28 -10 46 2 11 7 8 9 -13 8 -16 -2 -31 -6 -33 -10z"/>
<path d="M2835 1750 c3 -5 8 -10 11 -10 2 0 4 5 4 10 0 6 -5 10 -11 10 -5 0
-7 -4 -4 -10z"/>
<path d="M1394 1726 c-13 -10 -16 -18 -9 -25 7 -6 20 -1 40 15 27 21 28 24 9
24 -11 0 -29 -6 -40 -14z"/>
<path d="M1460 1721 c0 -12 5 -21 10 -21 6 0 10 6 10 14 0 8 -4 18 -10 21 -5
3 -10 -3 -10 -14z"/>
<path d="M740 1720 c0 -5 5 -10 10 -10 6 0 10 5 10 10 0 6 -4 10 -10 10 -5 0
-10 -4 -10 -10z"/>
<path d="M2810 1705 c0 -8 7 -15 15 -15 9 0 12 6 9 15 -4 8 -10 15 -15 15 -5
0 -9 -7 -9 -15z"/>
<path d="M718 1679 c3 -21 9 -29 19 -25 8 3 22 6 31 6 13 1 10 7 -11 25 -37
33 -44 31 -39 -6z"/>
<path d="M2940 1694 c0 -8 5 -12 10 -9 6 4 8 11 5 16 -9 14 -15 11 -15 -7z"/>
<path d="M989 1673 c-13 -17 -13 -17 6 -3 11 8 22 16 24 17 2 2 0 3 -6 3 -6 0
-17 -8 -24 -17z"/>
<path d="M2822 1658 c2 -6 10 -14 16 -16 7 -2 10 2 6 12 -7 18 -28 22 -22 4z"/>
<path d="M918 1631 c-18 -16 -30 -32 -27 -36 4 -3 22 10 42 30 42 42 31 47
-15 6z"/>
<path d="M2917 1636 c-4 -10 -5 -21 -2 -24 9 -9 17 6 13 25 -3 17 -4 17 -11
-1z"/>
<path d="M2994 1617 c-38 -43 -38 -52 -2 -22 20 17 37 33 37 38 2 14 -16 7
-35 -16z"/>
<path d="M690 1619 c0 -5 5 -7 10 -4 6 3 10 8 10 11 0 2 -4 4 -10 4 -5 0 -10
-5 -10 -11z"/>
<path d="M3315 1610 c-18 -8 -17 -9 8 -9 15 -1 27 4 27 9 0 12 -8 12 -35 0z"/>
<path d="M3042 1598 c-5 -8 -6 -22 -1 -33 7 -18 8 -17 8 7 1 14 7 29 14 31 7
4 8 6 1 6 -6 1 -16 -5 -22 -11z"/>
<path d="M761 1583 c0 -12 -9 -28 -19 -35 -25 -18 -57 -82 -37 -75 7 3 19 0
25 -8 6 -7 20 -11 30 -8 11 3 20 0 20 -6 0 -6 5 -11 11 -11 5 0 7 5 4 10 -3 6
-1 10 4 10 6 0 11 5 11 11 0 8 -12 10 -35 6 -44 -7 -45 7 -2 29 19 10 27 19
19 22 -7 2 -21 -3 -31 -12 -20 -18 -41 -21 -41 -6 0 6 5 9 12 8 15 -4 41 47
35 70 -4 13 -5 12 -6 -5z"/>
<path d="M828 1582 c20 -10 31 -21 27 -29 -3 -8 0 -11 6 -8 5 4 26 -6 47 -21
l36 -28 -29 38 c-32 40 -73 66 -102 65 -12 0 -7 -6 15 -17z"/>
<path d="M3155 1580 c-3 -5 -1 -10 4 -10 6 0 11 5 11 10 0 6 -2 10 -4 10 -3 0
-8 -4 -11 -10z"/>
<path d="M660 1569 c0 -5 5 -7 10 -4 6 3 10 8 10 11 0 2 -4 4 -10 4 -5 0 -10
-5 -10 -11z"/>
<path d="M2975 1550 c-3 -5 1 -10 9 -10 9 0 16 5 16 10 0 6 -4 10 -9 10 -6 0
-13 -4 -16 -10z"/>
<path d="M1112 1515 c-30 -38 -28 -50 4 -19 14 14 23 31 21 37 -1 5 -13 -2
-25 -18z"/>
<path d="M2531 1524 c0 -11 3 -14 6 -6 3 7 2 16 -1 19 -3 4 -6 -2 -5 -13z"/>
<path d="M3188 1523 c6 -2 18 -2 25 0 6 3 1 5 -13 5 -14 0 -19 -2 -12 -5z"/>
<path d="M2748 1513 c7 -3 16 -2 19 1 4 3 -2 6 -13 5 -11 0 -14 -3 -6 -6z"/>
<path d="M1556 1491 c-20 -8 -20 -8 0 -13 24 -6 46 1 38 13 -6 10 -12 10 -38
0z"/>
<path d="M2761 1484 c0 -11 3 -14 6 -6 3 7 2 16 -1 19 -3 4 -6 -2 -5 -13z"/>
<path d="M2527 1436 c-3 -8 1 -20 9 -26 12 -10 14 -8 14 14 0 28 -14 35 -23
12z"/>
<path d="M2076 1431 c-4 -7 -5 -15 -2 -18 9 -9 19 4 14 18 -4 11 -6 11 -12 0z"/>
<path d="M2582 1410 c-38 -35 -47 -37 -61 -12 -10 16 -10 16 -11 0 0 -10 5
-18 11 -18 6 0 9 -6 6 -13 -11 -30 39 -4 66 34 16 21 27 39 25 39 -2 0 -18
-13 -36 -30z"/>
<path d="M3270 1421 c0 -11 -4 -23 -10 -26 -15 -9 -12 -25 5 -25 10 0 15 11
15 35 0 19 -2 35 -5 35 -3 0 -5 -9 -5 -19z"/>
<path d="M3345 1430 c-3 -5 1 -10 9 -10 9 0 16 5 16 10 0 6 -4 10 -9 10 -6 0
-13 -4 -16 -10z"/>
<path d="M1223 1422 c-13 -2 -23 -8 -23 -14 0 -6 15 -7 41 -3 30 5 44 3 50 -6
7 -11 9 -10 9 4 0 9 -3 18 -7 18 -22 4 -51 4 -70 1z"/>
<path d="M1015 1410 c3 -5 8 -10 11 -10 2 0 4 5 4 10 0 6 -5 10 -11 10 -5 0
-7 -4 -4 -10z"/>
<path d="M1385 1410 c3 -5 8 -10 11 -10 2 0 4 5 4 10 0 6 -5 10 -11 10 -5 0
-7 -4 -4 -10z"/>
<path d="M1960 1394 c0 -38 -14 -59 -31 -48 -8 5 -22 10 -32 11 -17 3 -17 2 0
-22 19 -26 33 -32 33 -14 0 5 4 8 9 5 5 -4 9 -33 9 -67 -1 -35 4 -65 11 -72
10 -9 11 3 6 60 -4 39 -4 77 1 84 9 16 10 77 0 86 -3 4 -6 -7 -6 -23z"/>
<path d="M590 1395 c-17 -21 -3 -37 21 -25 25 14 83 3 113 -21 14 -11 27 -15
30 -10 8 13 -31 35 -96 53 -48 14 -59 14 -68 3z"/>
<path d="M3387 1391 c-3 -12 -1 -21 3 -21 14 0 19 15 11 29 -6 9 -10 7 -14 -8z"/>
<path d="M150 1390 c0 -6 17 -10 37 -10 43 0 41 5 -4 13 -19 4 -33 2 -33 -3z"/>
<path d="M1057 1380 c-3 -8 -5 -24 -4 -35 1 -14 -4 -20 -15 -19 -20 2 -24 -11
-7 -22 19 -12 41 21 37 57 -3 22 -6 29 -11 19z"/>
<path d="M1621 1364 c0 -11 3 -14 6 -6 3 7 2 16 -1 19 -3 4 -6 -2 -5 -13z"/>
<path d="M770 1340 c0 -5 5 -10 11 -10 5 0 7 5 4 10 -3 6 -8 10 -11 10 -2 0
-4 -4 -4 -10z"/>
<path d="M1263 1343 c-7 -2 -13 -11 -13 -18 0 -7 -11 -16 -24 -19 -17 -4 -26
-15 -31 -37 -4 -17 -4 -33 -1 -36 3 -4 6 1 6 10 0 10 7 17 15 17 8 0 15 5 15
10 0 6 8 18 18 28 45 46 49 59 15 45z"/>
<path d="M580 1310 c0 -18 4 -29 10 -25 6 3 10 15 10 25 0 10 -4 22 -10 25 -6
4 -10 -7 -10 -25z"/>
<path d="M1631 1324 c0 -11 3 -14 6 -6 3 7 2 16 -1 19 -3 4 -6 -2 -5 -13z"/>
<path d="M900 1320 c0 -9 39 -25 45 -18 2 2 -7 8 -21 15 -13 6 -24 7 -24 3z"/>
<path d="M2290 1321 c0 -6 5 -13 10 -16 6 -3 10 1 10 9 0 9 -4 16 -10 16 -5 0
-10 -4 -10 -9z"/>
<path d="M815 1310 c-3 -6 1 -7 9 -4 18 7 21 14 7 14 -6 0 -13 -4 -16 -10z"/>
<path d="M3407 1300 c-3 -11 -1 -20 4 -20 5 0 9 9 9 20 0 11 -2 20 -4 20 -2 0
-6 -9 -9 -20z"/>
<path d="M1626 1282 c-3 -6 -1 -14 5 -17 14 -9 20 -2 10 14 -6 8 -11 9 -15 3z"/>
<path d="M2440 1260 c0 -11 4 -20 9 -20 5 0 11 9 14 20 3 13 0 20 -9 20 -8 0
-14 -9 -14 -20z"/>
<path d="M3300 1270 c0 -5 5 -10 11 -10 5 0 7 5 4 10 -3 6 -8 10 -11 10 -2 0
-4 -4 -4 -10z"/>
<path d="M1530 1260 c8 -5 20 -10 25 -10 6 0 3 5 -5 10 -8 5 -19 10 -25 10 -5
0 -3 -5 5 -10z"/>
<path d="M3404 1256 c-4 -11 -14 -16 -25 -13 -15 4 -19 0 -19 -21 0 -20 3 -23
12 -14 7 7 20 12 30 12 23 0 35 27 20 42 -8 8 -13 7 -18 -6z"/>
<path d="M615 1250 c3 -5 8 -10 11 -10 2 0 4 5 4 10 0 6 -5 10 -11 10 -5 0 -7
-4 -4 -10z"/>
<path d="M650 1235 c7 -8 19 -15 26 -15 8 0 14 -8 14 -17 0 -13 3 -14 12 -5 9
9 16 8 30 -5 21 -19 24 -5 4 22 -7 10 -20 16 -27 13 -8 -3 -23 0 -34 8 -25 19
-41 18 -25 -1z"/>
<path d="M1405 1240 c4 -6 11 -8 16 -5 14 9 11 15 -7 15 -8 0 -12 -5 -9 -10z"/>
<path d="M1446 1237 c3 -8 -2 -20 -11 -27 -12 -10 -15 -10 -15 1 0 10 -3 10
-12 1 -9 -9 -9 -15 -1 -23 8 -8 18 -6 37 7 28 21 35 54 11 54 -8 0 -12 -6 -9
-13z"/>
<path d="M531 1240 c-1 -3 -4 -25 -6 -49 -2 -24 -8 -48 -14 -54 -6 -6 -11 -14
-11 -17 0 -6 6 -8 48 -12 9 -1 22 -8 29 -17 9 -12 12 -12 13 -3 0 16 -25 43
-33 36 -5 -6 -12 26 -20 91 -2 17 -5 28 -6 25z"/>
<path d="M3070 1230 c0 -6 7 -10 15 -10 8 0 15 2 15 4 0 2 -7 6 -15 10 -8 3
-15 1 -15 -4z"/>
<path d="M3182 1194 c-8 -13 -13 -14 -31 -4 -13 6 -25 9 -28 7 -2 -3 5 -8 16
-12 12 -3 21 -14 21 -23 0 -12 3 -13 12 -4 7 7 22 12 34 12 33 0 37 15 9 28
-20 9 -26 8 -33 -4z"/>
<path d="M3310 1199 c0 -5 9 -9 20 -9 11 0 20 2 20 4 0 2 -9 6 -20 9 -11 3
-20 1 -20 -4z"/>
<path d="M1450 1166 c0 -15 13 -36 35 -55 19 -17 34 -35 33 -40 -2 -5 6 -16
17 -25 16 -12 18 -17 8 -27 -20 -20 -15 -31 6 -19 31 16 35 12 10 -11 l-24
-20 25 7 c49 12 83 39 87 66 2 15 -1 29 -7 33 -5 3 -10 -3 -10 -14 0 -12 -4
-21 -10 -21 -5 0 -7 7 -3 16 4 10 1 14 -8 13 -17 -4 -59 18 -59 31 0 18 -34
50 -41 39 -4 -8 -14 -7 -30 2 -20 11 -21 14 -6 17 21 4 22 18 1 26 -23 9 -24
8 -24 -18z"/>
<path d="M2135 1180 c-3 -5 -1 -10 4 -10 6 0 11 5 11 10 0 6 -2 10 -4 10 -3 0
-8 -4 -11 -10z"/>
<path d="M2437 1150 c28 -32 43 -38 43 -17 0 19 -33 47 -53 47 -14 0 -12 -6
10 -30z"/>
<path d="M1650 1141 c-13 -25 -13 -41 0 -41 5 0 7 7 4 15 -4 10 0 15 15 15 12
0 21 6 21 15 0 22 -27 19 -40 -4z"/>
<path d="M878 1110 c2 -22 6 -40 8 -40 2 0 4 18 4 40 0 22 -3 40 -8 40 -4 0
-6 -18 -4 -40z"/>
<path d="M1960 1128 c0 -16 5 -28 10 -28 13 0 13 20 0 40 -8 12 -10 9 -10 -12z"/>
<path d="M3200 1130 c0 -17 3 -19 19 -10 23 12 36 30 22 30 -5 0 -12 -6 -14
-12 -4 -10 -6 -10 -6 0 -2 21 -21 13 -21 -8z"/>
<path d="M676 1124 c-17 -12 -17 -14 -4 -14 9 0 20 5 23 11 11 17 2 18 -19 3z"/>
<path d="M745 1120 c4 -6 11 -8 16 -5 14 9 11 15 -7 15 -8 0 -12 -5 -9 -10z"/>
<path d="M975 1120 c-3 -5 -1 -10 4 -10 6 0 11 5 11 10 0 6 -2 10 -4 10 -3 0
-8 -4 -11 -10z"/>
<path d="M3107 1123 c-4 -3 -7 -11 -7 -17 0 -6 5 -5 12 2 6 6 9 14 7 17 -3 3
-9 2 -12 -2z"/>
<path d="M920 1110 c0 -13 11 -13 30 0 12 8 11 10 -7 10 -13 0 -23 -4 -23 -10z"/>
<path d="M1288 1110 c-16 -10 -52 -70 -41 -70 3 0 14 11 25 25 11 14 28 25 38
25 13 0 17 5 14 15 -7 17 -13 18 -36 5z"/>
<path d="M3410 1110 c-13 -8 -12 -10 3 -10 9 0 17 5 17 10 0 12 -1 12 -20 0z"/>
<path d="M2097 1090 c3 -11 7 -20 9 -20 2 0 4 9 4 20 0 11 -4 20 -9 20 -5 0
-7 -9 -4 -20z"/>
<path d="M610 1082 c0 -15 5 -19 19 -15 10 3 22 0 25 -6 4 -6 12 -11 18 -11 6
0 3 9 -7 20 -10 11 -20 18 -23 15 -3 -3 -11 0 -19 6 -10 9 -13 7 -13 -9z"/>
<path d="M1450 1084 c0 -8 5 -12 10 -9 6 4 8 11 5 16 -9 14 -15 11 -15 -7z"/>
<path d="M966 1065 c4 -15 1 -32 -7 -42 -12 -14 -12 -16 1 -11 18 5 27 78 10
78 -6 0 -8 -10 -4 -25z"/>
<path d="M2355 1070 c-4 -6 5 -10 19 -10 14 0 26 5 26 10 0 6 -9 10 -19 10
-11 0 -23 -4 -26 -10z"/>
<path d="M473 1036 c2 -33 3 -34 22 -18 11 9 22 18 24 19 8 5 -22 33 -35 33
-8 0 -12 -12 -11 -34z"/>
<path d="M2117 1043 c4 -9 10 -10 24 -2 24 13 24 14 -5 14 -14 0 -22 -5 -19
-12z"/>
<path d="M870 1040 c0 -8 5 -22 10 -30 9 -13 10 -13 10 0 0 8 -5 22 -10 30 -9
13 -10 13 -10 0z"/>
<path d="M2514 1035 c-10 -8 -14 -15 -8 -15 19 0 9 -64 -10 -68 -9 -2 -16 -10
-16 -18 0 -8 -19 -36 -42 -61 l-43 -47 44 37 c25 20 48 37 53 37 13 0 9 -17
-7 -30 -21 -17 -12 -24 14 -11 15 9 26 8 41 -1 11 -7 20 -16 20 -21 0 -4 14
-21 32 -37 17 -16 30 -32 27 -34 -8 -8 -62 -8 -88 0 -18 5 -23 4 -19 -7 6 -17
208 -26 208 -9 0 5 -8 10 -18 10 -27 0 -115 62 -129 92 -7 14 -27 31 -43 37
-35 12 -37 21 -10 46 14 12 17 25 13 46 -3 16 0 35 6 43 17 20 -2 28 -25 11z"/>
<path d="M722 1000 c-14 -22 -16 -50 -4 -50 15 0 32 24 32 47 0 28 -11 30 -28
3z"/>
<path d="M2010 1000 c0 -5 5 -10 10 -10 6 0 10 5 10 10 0 6 -4 10 -10 10 -5 0
-10 -4 -10 -10z"/>
<path d="M3077 990 c-3 -11 -2 -22 3 -25 4 -3 10 6 12 20 6 30 -7 34 -15 5z"/>
<path d="M3390 978 c-8 -21 -20 -38 -27 -38 -7 0 -13 -4 -13 -10 0 -18 34 -11
73 15 42 29 46 40 16 42 -16 2 -18 -1 -10 -11 9 -10 8 -15 -5 -20 -28 -11 -35
-7 -24 15 6 11 9 25 7 32 -2 7 -10 -5 -17 -25z"/>
<path d="M2945 990 c-3 -5 -2 -10 4 -10 5 0 13 5 16 10 3 6 2 10 -4 10 -5 0
-13 -4 -16 -10z"/>
<path d="M785 979 c-10 -15 3 -25 16 -12 7 7 7 13 1 17 -6 3 -14 1 -17 -5z"/>
<path d="M1955 964 c-20 -30 -11 -46 10 -18 13 18 20 44 11 44 -2 0 -11 -12
-21 -26z"/>
<path d="M485 970 c-3 -5 -1 -10 4 -10 6 0 11 5 11 10 0 6 -2 10 -4 10 -3 0
-8 -4 -11 -10z"/>
<path d="M2980 970 c0 -13 30 -13 50 0 11 7 7 10 -17 10 -18 0 -33 -4 -33 -10z"/>
<path d="M655 960 c-3 -5 -1 -10 4 -10 6 0 11 5 11 10 0 6 -2 10 -4 10 -3 0
-8 -4 -11 -10z"/>
<path d="M898 963 c7 -3 16 -2 19 1 4 3 -2 6 -13 5 -11 0 -14 -3 -6 -6z"/>
<path d="M865 950 c-3 -5 -1 -10 4 -10 6 0 11 5 11 10 0 6 -2 10 -4 10 -3 0
-8 -4 -11 -10z"/>
<path d="M3115 940 c-16 -18 -16 -20 -2 -20 10 0 17 4 17 8 0 5 10 14 23 20
21 10 21 11 1 11 -11 1 -29 -8 -39 -19z"/>
<path d="M480 935 c0 -8 2 -15 4 -15 2 0 6 7 10 15 3 8 1 15 -4 15 -6 0 -10
-7 -10 -15z"/>
<path d="M501 919 c-7 -12 -10 -23 -8 -26 3 -3 11 5 17 17 15 28 8 35 -9 9z"/>
<path d="M903 925 c-8 -9 -9 -16 -3 -20 6 -3 13 1 16 10 9 21 2 26 -13 10z"/>
<path d="M932 915 c-31 -39 -28 -55 4 -23 15 14 24 32 22 39 -3 8 -12 2 -26
-16z"/>
<path d="M3037 933 c-4 -3 -7 -13 -7 -22 1 -13 3 -13 11 2 11 19 8 33 -4 20z"/>
<path d="M3205 920 c3 -5 8 -10 11 -10 2 0 4 5 4 10 0 6 -5 10 -11 10 -5 0 -7
-4 -4 -10z"/>
<path d="M565 876 c-22 -21 -25 -27 -10 -21 39 14 90 17 133 7 42 -10 57 -5
44 15 -7 11 -69 26 -112 27 -15 1 -37 -11 -55 -28z"/>
<path d="M980 883 c1 -26 2 -27 14 -10 8 10 24 17 35 15 11 -2 19 1 18 6 -1 6
-17 11 -34 13 -30 3 -33 1 -33 -24z"/>
<path d="M1686 894 c-22 -8 -63 -15 -91 -16 l-52 -1 20 -20 20 -20 -23 -16
c-12 -9 -51 -43 -86 -75 -52 -48 -71 -59 -99 -60 -19 -1 -35 3 -35 7 0 5 -10
7 -22 5 -15 -2 -24 -11 -26 -25 -2 -14 -8 -20 -18 -16 -7 3 -17 -2 -20 -11 -9
-23 -21 -20 -37 10 -12 23 -15 24 -26 10 -11 -14 -11 -16 4 -16 14 0 15 -3 5
-14 -6 -8 -18 -12 -26 -9 -8 3 -14 0 -14 -6 0 -16 -32 -51 -47 -51 -15 0 -17
16 -3 25 11 7 14 48 3 58 -9 10 -43 -23 -43 -42 0 -9 7 -25 15 -35 13 -17 13
-22 -2 -38 -20 -22 -36 -23 -53 -3 -11 13 -15 13 -22 3 -6 -10 -10 -10 -17 2
-9 12 -11 12 -16 -2 -6 -14 -10 -15 -27 -5 -16 10 -22 9 -25 -1 -4 -10 -9 -9
-24 4 -17 16 -19 16 -19 1 0 -29 -20 -19 -26 13 -4 16 -10 27 -15 25 -4 -3 -5
-13 -2 -22 4 -11 2 -14 -8 -11 -8 2 -15 14 -17 26 -3 21 -3 21 -30 -3 -30 -28
-57 -33 -49 -10 4 8 2 17 -3 20 -4 3 -11 -1 -13 -7 -3 -7 -6 -2 -7 12 -1 24
-3 22 -39 -20 l-39 -44 -7 32 c-3 18 -12 32 -20 32 -16 0 -27 51 -14 66 5 6 6
14 2 18 -4 3 2 13 13 21 10 8 15 15 9 15 -5 0 1 6 14 13 32 16 39 37 12 37
-12 0 -21 -4 -21 -9 0 -6 -16 -7 -37 -4 -25 4 -34 3 -29 -5 4 -6 14 -8 24 -5
32 11 -81 -82 -117 -97 -20 -8 -37 -21 -38 -27 -4 -19 14 -16 25 3 6 11 11 13
16 5 9 -14 -1 -31 -17 -31 -12 0 -45 -66 -67 -132 -12 -40 -36 -54 -25 -15 27
88 39 124 48 135 5 7 8 15 5 18 -3 2 -13 -11 -22 -30 -9 -19 -21 -38 -26 -41
-6 -3 -10 -15 -10 -27 0 -17 -2 -18 -15 -8 -13 11 -14 8 -10 -16 2 -16 7 -60
11 -99 5 -51 9 -64 15 -50 5 13 7 2 4 -31 -4 -55 -40 -134 -100 -218 -19 -26
-35 -52 -35 -57 0 -5 20 -9 45 -9 28 0 45 4 45 12 0 9 3 9 12 0 7 -7 25 -12
40 -12 30 0 34 13 29 87 -1 18 3 42 9 53 8 15 8 20 -2 20 -7 0 -6 5 4 12 9 7
18 25 22 41 4 15 10 27 15 27 4 0 6 -12 3 -27 -2 -16 -1 -25 3 -21 5 5 10 22
12 40 2 17 7 36 12 42 5 6 12 26 16 43 6 29 4 32 -12 26 -10 -3 -25 -11 -33
-16 -8 -6 -1 3 15 20 17 16 46 35 65 41 51 15 120 24 120 14 0 -4 -12 -9 -27
-10 -32 -2 -37 -7 -28 -22 5 -8 11 -8 22 1 12 11 13 9 8 -14 -6 -23 -4 -27 15
-27 11 0 18 -4 15 -10 -3 -5 0 -7 8 -4 9 3 17 -4 22 -18 6 -19 8 -20 12 -6 5
21 9 22 27 6 9 -8 12 -26 8 -50 -4 -34 -2 -38 17 -38 12 0 21 -6 21 -15 0 -8
-7 -15 -15 -15 -9 0 -12 -6 -8 -15 3 -9 -2 -24 -11 -34 -18 -20 -12 -53 8 -45
9 3 11 -4 8 -27 -3 -22 -1 -30 7 -25 7 5 11 -1 11 -14 l0 -21 303 3 c276 3
304 5 330 22 15 10 26 20 24 22 -1 2 -29 -4 -61 -12 l-59 -15 -24 25 c-21 23
-31 56 -18 56 3 0 18 -12 32 -28 17 -18 24 -21 20 -9 -4 11 -1 20 8 23 8 4 15
10 15 16 0 5 -5 6 -11 2 -7 -4 -10 1 -7 12 4 24 77 30 93 8 5 -8 27 -15 48
-16 20 -1 37 -6 36 -12 -4 -30 5 -32 133 -35 73 -1 134 -3 135 -5 6 -6 -10
-45 -17 -41 -5 3 -11 1 -15 -5 -3 -5 3 -10 14 -10 11 0 22 9 26 19 4 13 19 21
50 26 58 8 85 0 85 -28 0 -16 3 -18 9 -8 7 11 20 11 73 2 91 -16 402 -15 429
2 17 9 23 9 26 0 8 -22 31 -14 37 12 4 17 13 25 28 25 37 0 98 -23 98 -37 0
-10 31 -13 151 -13 97 0 148 4 144 10 -3 5 -3 10 2 10 24 1 35 18 24 39 -7 13
-8 21 -2 21 6 0 15 -9 21 -20 6 -11 17 -17 28 -14 9 2 3 -2 -15 -11 -17 -8
-34 -18 -37 -23 -3 -5 66 -10 152 -11 153 -2 159 -1 177 21 15 17 16 19 3 9
-15 -11 -19 -11 -25 4 -4 12 0 23 12 31 15 11 16 16 5 29 -7 9 -19 14 -26 11
-6 -2 -20 2 -31 9 -10 8 -14 15 -9 15 5 0 3 7 -4 15 -16 19 -1 19 27 0 18 -13
22 -12 38 5 10 11 15 23 12 27 -4 3 -7 1 -7 -5 0 -6 -7 -9 -15 -6 -8 4 -15 1
-15 -6 0 -6 -4 -8 -10 -5 -5 3 -10 15 -10 26 0 11 5 17 10 14 6 -4 10 11 10
39 0 25 5 48 11 51 15 10 25 -3 12 -16 -17 -17 -5 -38 18 -32 16 4 19 11 15
29 -5 17 -2 24 9 24 8 0 15 9 15 20 0 13 7 20 19 20 11 0 23 5 26 10 4 6 11 8
16 4 5 -3 16 0 24 6 9 8 29 9 54 5 38 -6 63 6 40 21 -6 3 -15 0 -20 -7 -7 -11
-9 -10 -9 4 0 18 34 24 45 7 3 -5 16 -10 27 -10 19 0 18 2 -6 21 -18 14 -26
28 -23 40 3 10 -1 23 -8 29 -7 6 -16 25 -19 43 -6 31 -52 87 -112 136 -16 13
-44 37 -62 53 -18 15 -40 28 -48 28 -9 0 11 -20 45 -45 67 -49 146 -148 156
-196 4 -17 5 -32 2 -35 -2 -2 -28 1 -58 7 -105 23 -264 -2 -321 -50 -14 -10
-18 -11 -18 -1 0 8 -6 10 -17 5 -39 -16 -148 -21 -204 -10 -14 3 -43 1 -65 -4
-21 -5 -56 -14 -77 -19 -29 -8 -41 -7 -52 4 -7 8 -16 10 -19 6 -9 -14 -180 -2
-192 14 -6 7 -14 11 -17 8 -11 -11 -107 17 -107 31 0 7 5 15 12 17 6 2 8 9 5
16 -6 8 -18 7 -47 -3 -35 -12 -40 -12 -40 0 0 19 -10 19 -38 -1 -16 -11 -21
-22 -17 -35 16 -51 -41 -85 -65 -39 -6 11 -15 18 -21 15 -18 -12 -134 -14
-196 -3 -48 8 -62 14 -66 30 -5 17 -11 20 -34 15 -19 -4 -36 0 -52 12 -23 17
-23 19 -7 44 21 32 73 57 106 51 27 -5 59 10 47 22 -10 10 -141 -15 -220 -42
-90 -32 -130 -31 -151 1 -22 33 -47 23 -39 -16 5 -24 2 -29 -15 -29 -11 0 -23
8 -26 18 -2 9 -8 28 -11 41 -6 20 -4 23 10 17 10 -3 34 3 57 16 39 22 39 23
33 68 -4 32 -3 41 4 30 6 -8 11 -25 11 -37 0 -13 6 -23 13 -23 25 0 27 13 6
50 -27 48 -17 68 50 102 l49 26 19 -20 c18 -21 18 -21 -5 -9 -48 25 -32 1 21
-33 49 -32 59 -35 82 -24 37 17 68 -2 101 -61 15 -28 31 -51 35 -51 18 0 40
48 33 74 -4 16 -1 32 6 41 11 13 8 15 -16 16 -16 1 -35 1 -41 0 -17 -2 -16 22
1 64 20 47 0 45 -21 -2 -10 -21 -18 -39 -19 -41 -5 -10 -33 14 -38 34 -7 26
-21 32 -29 12 -3 -8 -22 -13 -48 -13 -40 0 -44 3 -47 25 -2 16 7 35 24 54 24
25 32 27 66 22 30 -5 39 -3 36 6 -6 18 -75 19 -122 2z m-76 -44 c0 -5 -4 -10
-10 -10 -5 0 -10 5 -10 10 0 6 5 10 10 10 6 0 10 -4 10 -10z m138 -436 c21
-15 52 -63 52 -82 0 -10 -68 -41 -90 -40 -8 0 -37 -5 -65 -10 -63 -13 -186
-18 -202 -9 -7 5 -9 1 -6 -13 4 -14 -1 -21 -21 -26 -34 -8 -57 1 -63 27 -6 21
-24 22 -108 7 -12 -2 -20 3 -20 11 0 8 20 19 50 27 28 8 60 16 73 20 13 4 22
2 22 -5 0 -6 7 -8 15 -5 8 4 12 11 9 16 -4 6 2 8 15 3 15 -4 21 -2 21 9 0 8 9
20 19 26 27 14 34 13 27 -5 -4 -11 1 -15 17 -15 24 0 176 56 192 71 14 13 38
11 63 -7z m1400 -34 c26 -1 50 -23 58 -54 5 -22 4 -28 -7 -24 -8 3 -14 13 -14
22 0 19 -39 45 -67 46 -10 0 -18 5 -18 11 0 6 7 8 16 5 9 -3 23 -6 32 -6z
m-1065 -34 c5 -8 10 -7 16 3 6 10 20 12 44 8 22 -3 37 -1 39 5 4 10 90 -49
113 -77 17 -21 128 -74 170 -81 22 -4 43 -8 47 -11 4 -2 -11 -20 -34 -41 -30
-27 -50 -37 -81 -39 -22 -2 -51 -10 -65 -19 -25 -16 -25 -16 -18 12 4 16 3 24
-1 19 -10 -13 -47 -31 -100 -49 l-43 -15 -10 38 c-9 35 -12 37 -41 33 -22 -3
-30 -1 -25 7 4 6 18 11 32 11 13 0 24 4 24 9 0 6 -15 7 -34 4 -19 -3 -36 -1
-40 6 -4 6 -15 7 -29 2 -30 -12 -203 -6 -253 8 -44 13 -98 56 -89 71 14 22 95
61 115 55 11 -3 20 -11 20 -16 0 -5 5 -9 11 -9 5 0 7 5 4 10 -3 6 -2 10 4 10
5 0 14 -6 18 -13 10 -17 88 -37 143 -37 36 0 41 3 35 19 -3 10 1 24 10 31 8 7
15 17 15 23 0 6 -12 -1 -27 -15 -30 -28 -73 -45 -73 -30 0 5 7 15 15 22 8 7
15 19 15 28 0 13 -2 13 -18 -1 -10 -10 -26 -17 -35 -17 -15 0 -47 35 -47 52 0
12 164 -4 173 -16z m1047 -22 c0 -8 -5 -12 -10 -9 -6 4 -8 11 -5 16 9 14 15
11 15 -7z m-570 -54 c8 -5 13 -10 10 -11 -43 -7 -61 -5 -71 7 -9 12 -6 14 17
14 16 0 36 -5 44 -10z m115 -20 c16 -7 12 -9 -20 -10 l-40 -1 35 -16 c30 -14
32 -17 14 -20 -11 -2 -33 1 -49 7 -23 9 -26 13 -15 20 10 7 11 10 3 10 -7 0
-13 5 -13 10 0 12 57 12 85 0z m-992 -71 c6 -9 7 -24 3 -34 -6 -16 -17 -17
-101 -12 -54 3 -97 1 -100 -4 -9 -14 -51 -11 -65 6 -10 12 -8 15 12 19 12 2
32 4 43 4 11 0 49 10 85 21 74 23 109 23 123 0z m977 -3 c0 -24 -16 -27 -35
-6 -18 19 -17 20 8 20 17 0 27 -5 27 -14z m-79 -28 c7 -13 19 -28 28 -35 9 -7
11 -13 5 -13 -5 0 -25 16 -44 35 -25 26 -29 35 -17 35 9 0 22 -10 28 -22z
m-1271 -7 c0 -14 -18 -23 -30 -16 -6 4 -8 11 -5 16 8 12 35 12 35 0z m-266
-77 c3 -8 2 -12 -4 -9 -6 3 -10 10 -10 16 0 14 7 11 14 -7z m-697 -26 c-3 -8
-6 -5 -6 6 -1 11 2 17 5 13 3 -3 4 -12 1 -19z m2560 6 c-3 -3 -12 -4 -19 -1
-8 3 -5 6 6 6 11 1 17 -2 13 -5z"/>
<path d="M2112 326 c1 -10 8 -17 13 -17 15 1 12 24 -3 29 -9 3 -13 -2 -10 -12z"/>
<path d="M2170 280 c0 -6 7 -10 15 -10 8 0 15 2 15 4 0 2 -7 6 -15 10 -8 3
-15 1 -15 -4z"/>
<path d="M2297 903 c-4 -3 -7 -11 -7 -17 0 -6 5 -5 12 2 6 6 9 14 7 17 -3 3
-9 2 -12 -2z"/>
<path d="M2623 895 c-17 -13 -16 -14 9 -15 30 0 46 15 24 23 -8 3 -22 -1 -33
-8z"/>
<path d="M3305 900 c3 -5 13 -10 21 -10 8 0 14 5 14 10 0 6 -9 10 -21 10 -11
0 -17 -4 -14 -10z"/>
<path d="M797 871 c6 -24 31 -47 40 -38 3 4 -6 18 -20 32 -22 23 -25 24 -20 6z"/>
<path d="M2901 854 c0 -11 3 -14 6 -6 3 7 2 16 -1 19 -3 4 -6 -2 -5 -13z"/>
<path d="M921 838 c-1 -10 -8 -18 -17 -18 -8 0 -12 -5 -8 -11 9 -15 38 15 31
33 -4 9 -6 7 -6 -4z"/>
<path d="M1130 840 c0 -5 5 -10 10 -10 6 0 10 5 10 10 0 6 -4 10 -10 10 -5 0
-10 -4 -10 -10z"/>
<path d="M2295 840 c3 -5 11 -10 16 -10 6 0 7 5 4 10 -3 6 -11 10 -16 10 -6 0
-7 -4 -4 -10z"/>
<path d="M385 830 c-13 -21 -24 -73 -18 -84 4 -5 6 -31 5 -56 -2 -33 0 -41 7
-30 6 8 8 25 5 36 -3 12 -1 25 5 28 6 4 11 1 11 -6 0 -9 3 -9 10 2 7 11 4 19
-10 30 -13 10 -18 22 -14 38 4 12 10 22 15 22 5 0 9 7 9 15 0 17 -16 20 -25 5z"/>
<path d="M1052 768 c3 -7 13 -15 24 -17 16 -3 17 -1 5 13 -16 19 -34 21 -29 4z"/>
<path d="M2936 771 c-4 -5 -2 -12 3 -15 5 -4 12 -2 15 3 4 5 2 12 -3 15 -5 4
-12 2 -15 -3z"/>
<path d="M1008 763 c6 -2 18 -2 25 0 6 3 1 5 -13 5 -14 0 -19 -2 -12 -5z"/>
<path d="M3135 750 c3 -5 10 -10 16 -10 5 0 9 5 9 10 0 6 -7 10 -16 10 -8 0
-12 -4 -9 -10z"/>
<path d="M3495 750 c3 -5 8 -10 11 -10 2 0 4 5 4 10 0 6 -5 10 -11 10 -5 0 -7
-4 -4 -10z"/>
<path d="M502 725 c-13 -7 -19 -15 -14 -19 5 -3 17 3 27 14 21 23 19 23 -13 5z"/>
<path d="M3515 730 c-4 -6 -3 -16 3 -22 13 -13 23 4 13 21 -7 10 -10 10 -16 1z"/>
<path d="M3440 640 c0 -5 5 -10 11 -10 5 0 7 5 4 10 -3 6 -8 10 -11 10 -2 0
-4 -4 -4 -10z"/>
<path d="M330 613 c0 -22 2 -25 10 -13 13 20 13 40 0 40 -5 0 -10 -12 -10 -27z"/>
<path d="M3490 616 c0 -2 7 -7 16 -10 8 -3 12 -2 9 4 -6 10 -25 14 -25 6z"/>
<path d="M1040 550 c0 -5 5 -10 10 -10 6 0 10 5 10 10 0 6 -4 10 -10 10 -5 0
-10 -4 -10 -10z"/>
<path d="M3556 341 c9 -17 20 -31 25 -31 5 0 9 -4 9 -10 0 -5 -7 -10 -16 -10
-9 0 -14 -7 -12 -17 5 -26 25 -27 34 -1 13 38 7 51 -38 87 -16 12 -17 11 -2
-18z"/>
<path d="M3500 344 c0 -8 5 -12 10 -9 6 3 10 10 10 16 0 5 -4 9 -10 9 -5 0
-10 -7 -10 -16z"/>
<path d="M3470 321 c0 -19 17 -38 25 -29 7 7 -7 48 -16 48 -5 0 -9 -9 -9 -19z"/>
<path d="M3418 313 c7 -3 16 -2 19 1 4 3 -2 6 -13 5 -11 0 -14 -3 -6 -6z"/>
<path d="M3607 259 c-13 -18 -14 -26 -4 -37 10 -13 12 -13 15 2 3 14 7 15 18
5 17 -14 18 -2 0 30 l-13 24 -16 -24z"/>
<path d="M690 200 c-1 -3 -3 -19 -6 -37 -3 -25 -1 -31 11 -27 8 4 12 10 9 15
-3 5 1 9 8 9 9 0 9 3 2 8 -6 4 -14 14 -17 22 -3 8 -6 13 -7 10z"/>
<path d="M3610 118 c0 -15 7 -34 16 -42 8 -9 11 -16 5 -16 -6 0 -11 -8 -11
-18 0 -10 -5 -23 -11 -29 -8 -8 9 -11 60 -12 39 0 71 3 71 8 0 13 -29 78 -30
66 0 -5 -5 -3 -10 5 -8 12 -10 10 -10 -10 -1 -24 -1 -25 -16 -5 -9 12 -11 21
-4 23 19 7 10 24 -10 19 -13 -3 -25 2 -35 16 -15 21 -15 21 -15 -5z m50 -88
c0 -5 -4 -10 -9 -10 -6 0 -13 5 -16 10 -3 6 1 10 9 10 9 0 16 -4 16 -10z"/>
<path d="M3250 123 c0 -5 5 -15 10 -23 8 -12 10 -11 10 8 0 12 -4 22 -10 22
-5 0 -10 -3 -10 -7z"/>
<path d="M1375 110 c3 -5 8 -10 11 -10 2 0 4 5 4 10 0 6 -5 10 -11 10 -5 0 -7
-4 -4 -10z"/>
<path d="M3592 45 c0 -17 2 -22 5 -12 2 9 2 23 0 30 -3 6 -5 -1 -5 -18z"/>
<path d="M1502 20 c0 -14 2 -19 5 -12 2 6 2 18 0 25 -3 6 -5 1 -5 -13z"/>
<path d="M1611 23 c7 -10 15 -20 16 -22 2 -2 3 5 3 17 0 14 -6 22 -16 22 -14
0 -15 -3 -3 -17z"/>
</g>
</svg>
