<svg xmlns="http://www.w3.org/2000/svg" x="0px" y="0px"
width="104" height="104"
viewBox="0 0 30 30"
style=" fill:#000000;"><path fill="#839cb2" d="M14.988,20.391c-1.796-3.526-7.122-3.944-9.537-3.944c-0.188,0-0.362,0.002-0.521,0.006 c0.589-1.115,0.705-2.18,0.346-3.175C4.819,12.01,3.66,11.104,2.556,10.5h7.041c0.184,0.739,0.671,2.177,1.713,2.454l0.396,0.109 c0.569,0.159,1.157,0.324,1.622,0.324c0.771,0,1.047-0.473,1.047-0.917c0.015-0.085,0.029-0.179,0.044-0.276h0.056l0.18-0.067 c0.08-0.033,0.18-0.075,0.346-0.075c0.187,0,0.258,0.035,0.259,0.035l0.304,0.343c0,0.013,0,0.026,0,0.04 c0.047,0.331,0.234,0.917,1.101,0.917c0.443,0,0.986-0.156,1.512-0.306l0.453-0.127c1.09-0.273,1.588-1.714,1.775-2.454h7.087 c-1.125,0.619-2.317,1.55-2.772,2.847c-0.344,0.978-0.228,2.017,0.343,3.098c-0.201-0.006-0.427-0.01-0.675-0.01 C21.994,16.435,16.725,16.854,14.988,20.391z"></path><path fill="#66798f" d="M25.846,11c-0.692,0.579-1.29,1.299-1.6,2.181c-0.311,0.886-0.296,1.808,0.042,2.753 c-4.5,0.018-7.741,1.263-9.306,3.499c-1.587-2.202-4.817-3.441-9.278-3.486c0.356-0.981,0.372-1.931,0.044-2.84 C5.44,12.257,4.866,11.561,4.199,11h5.015c0.271,0.886,0.844,2.139,1.966,2.437c0.127,0.034,0.258,0.07,0.39,0.108 c0.602,0.169,1.224,0.343,1.757,0.343c1.014,0,1.496-0.641,1.543-1.309c0.041-0.017,0.067-0.024,0.116-0.025l0.093,0.105 c0.085,0.474,0.397,0.967,1.021,1.153l0.034,0.039l0.006-0.027c0.155,0.042,0.329,0.065,0.523,0.065 c0.514,0,1.091-0.166,1.649-0.326c0.149-0.043,0.298-0.086,0.431-0.121c1.173-0.294,1.763-1.552,2.04-2.441H25.846 M30,10H20 c0,0-0.375,2.188-1.5,2.471c-0.64,0.17-1.347,0.417-1.837,0.417c-0.323,0-0.551-0.108-0.601-0.417c0-0.918-0.25-1.976-0.25-1.976 l-0.25,1.2c0,0-0.125-0.141-0.562-0.141c-0.375,0-0.563,0.141-0.625,0.141l-0.25-1.2c0,0-0.125,1.2-0.25,1.976 c0,0.309-0.218,0.417-0.547,0.417c-0.498,0-1.251-0.247-1.891-0.417C10.375,12.188,10,10,10,10H0c0,0,7.629,1.972,4,7 c0,0,0.57-0.054,1.451-0.054c2.8,0,8.743,0.54,9.549,5.054c0.738-4.497,6.512-5.065,9.386-5.065C25.359,16.935,26,17,26,17 C22.384,12.058,30,10,30,10L30,10z"></path></svg>